<?xml version="1.0" encoding="utf-8"?>
<!-- Generator: Adobe Illustrator 26.0.2, SVG Export Plug-In . SVG Version: 6.00 Build 0)  -->
<svg version="1.1" id="Ebene_1" xmlns="http://www.w3.org/2000/svg" xmlns:xlink="http://www.w3.org/1999/xlink" x="0px" y="0px"
	 viewBox="0 0 340.16 113.39" style="enable-background:new 0 0 340.16 113.39;" xml:space="preserve">
<style type="text/css">
	.st0{fill-rule:evenodd;clip-rule:evenodd;fill:#FFFFFF;}
	.st1{fill-rule:evenodd;clip-rule:evenodd;fill:#009FE3;}
	.st2{fill-rule:evenodd;clip-rule:evenodd;fill:#FFFFFF;}
</style>
<rect class="st0" width="340.16" height="113.39"/>
<g>
	<path d="M23.87,37.2h12v2.69H27v7.14h7.17v2.69H27v8.19h9.31v2.72H23.87V37.2z"/>
	<path d="M40.15,43.6h2.28l0.44,2.11c1.5-1.5,3.2-2.55,5.2-2.55c2.45,0,4.11,1.26,4.11,4.15v13.33h-2.92V48.22
		c0-1.94-0.54-2.48-2.07-2.48c-1.36,0-2.89,0.95-4.11,2.04v12.85h-2.92V43.6z"/>
	<path d="M56.15,52.23c0-6.39,1.87-9.08,5.85-9.08c1.87,0,3.43,1.02,4.52,2.07v-9.21h2.92v24.62h-2.28l-0.48-1.77
		c-1.29,1.43-2.92,2.21-4.72,2.21C58.7,61.07,56.15,59.23,56.15,52.23z M66.52,56.72V47.5c-0.99-0.95-2.35-1.84-3.77-1.84
		c-2.41,0-3.47,0.88-3.47,6.36c0,5.47,0.88,6.53,3.2,6.53C64.14,58.55,65.3,57.87,66.52,56.72z"/>
	<path d="M74.33,43.6h2.28l0.48,2.41c1.26-1.56,2.82-2.72,4.79-2.72c0.2,0,0.47,0.03,0.61,0.1l-0.34,3.13
		c-0.31-0.1-0.68-0.14-1.02-0.14c-1.56,0-2.62,0.58-3.88,1.73v12.51h-2.92V43.6z"/>
	<path d="M84.21,52.1c0-6.46,2.65-8.94,6.66-8.94c4.04,0,6.36,2.31,6.36,8.47v1.16h-9.89c0.07,4.66,1.09,5.81,3.91,5.81
		c1.84,0,2.89-0.71,4.01-1.6l1.6,2.11c-1.67,1.36-3.2,1.97-5.68,1.97C86.73,61.07,84.21,58.49,84.21,52.1z M87.38,50.56h6.77
		c0-3.91-0.88-5.1-3.33-5.1C88.84,45.47,87.61,46.48,87.38,50.56z"/>
	<path d="M99.51,59.23l1.22-2.18c1.43,0.99,2.89,1.56,4.56,1.56c2.31,0,3.03-0.92,3.03-2.52c0-1.9-0.88-2.28-3.6-3.03
		c-2.38-0.65-4.35-1.9-4.35-5.27c0-2.48,1.6-4.66,5.34-4.66c2.04,0,3.47,0.41,4.72,1.12l-1.02,2.31c-1.43-0.71-2.31-0.95-3.6-0.95
		c-1.84,0-2.69,0.65-2.69,2.11c0,1.6,0.71,2.01,3.06,2.65c2.62,0.71,5,1.73,5,5.58c0,3.53-2.01,5.1-6.02,5.1
		C102.88,61.07,100.7,60.19,99.51,59.23z"/>
	<path d="M113.42,59.23l1.22-2.18c1.43,0.99,2.89,1.56,4.55,1.56c2.31,0,3.03-0.92,3.03-2.52c0-1.9-0.88-2.28-3.61-3.03
		c-2.38-0.65-4.35-1.9-4.35-5.27c0-2.48,1.6-4.66,5.34-4.66c2.04,0,3.47,0.41,4.73,1.12l-1.02,2.31c-1.43-0.71-2.31-0.95-3.61-0.95
		c-1.84,0-2.69,0.65-2.69,2.11c0,1.6,0.71,2.01,3.06,2.65c2.62,0.71,5,1.73,5,5.58c0,3.53-2.01,5.1-6.02,5.1
		C116.78,61.07,114.61,60.19,113.42,59.23z"/>
	<path d="M135.72,51.96h-5.47v-2.55h5.47v-6.02h2.75v6.02h5.44v2.55h-5.44v6.02h-2.75V51.96z"/>
	<path d="M150.61,37.2h3.13v9.59h8.43V37.2h3.13v23.43h-3.13V49.54h-8.43v11.08h-3.13V37.2z"/>
	<path d="M169.3,55.77c0-3.88,2.28-5.68,7.85-5.68h1.39v-1.33c0-1.9-0.24-3.06-2.45-3.06c-1.77,0-3.47,0.75-4.96,1.56l-1.12-2.24
		c1.73-1.02,3.67-1.87,6.39-1.87c3.33,0,5.07,1.5,5.07,5.13v12.34h-2.28l-0.48-1.7c-0.98,1.09-2.41,2.14-4.28,2.14
		C171.17,61.07,169.3,59.27,169.3,55.77z M178.55,56.72V52.2h-1.02c-4.28,0-5.1,1.09-5.1,3.57c0,2.24,0.71,2.99,2.38,2.99
		S177.74,57.64,178.55,56.72z"/>
	<path d="M185.95,56.72V43.6h2.92V55.8c0,2.01,0.68,2.69,2.21,2.69c1.36,0,2.82-0.92,4.08-2.04V43.6h2.92v17.03h-2.28l-0.44-2.11
		c-1.43,1.46-3.06,2.55-5.07,2.55C187.85,61.07,185.95,59.68,185.95,56.72z"/>
	<path d="M201.52,59.23l1.22-2.18c1.43,0.99,2.89,1.56,4.56,1.56c2.31,0,3.03-0.92,3.03-2.52c0-1.9-0.88-2.28-3.6-3.03
		c-2.38-0.65-4.35-1.9-4.35-5.27c0-2.48,1.6-4.66,5.34-4.66c2.04,0,3.47,0.41,4.72,1.12l-1.02,2.31c-1.43-0.71-2.31-0.95-3.6-0.95
		c-1.84,0-2.69,0.65-2.69,2.11c0,1.6,0.71,2.01,3.06,2.65c2.62,0.71,5,1.73,5,5.58c0,3.53-2.01,5.1-6.02,5.1
		C204.88,61.07,202.71,60.19,201.52,59.23z"/>
	<path d="M216,52.1c0-6.46,2.65-8.94,6.66-8.94c4.05,0,6.36,2.31,6.36,8.47v1.16h-9.89c0.07,4.66,1.09,5.81,3.91,5.81
		c1.84,0,2.89-0.71,4.01-1.6l1.6,2.11c-1.67,1.36-3.2,1.97-5.68,1.97C218.52,61.07,216,58.49,216,52.1z M219.16,50.56h6.77
		c0-3.91-0.88-5.1-3.33-5.1C220.63,45.47,219.4,46.48,219.16,50.56z"/>
	<path d="M232.75,43.6h2.28l0.47,2.41c1.26-1.56,2.82-2.72,4.79-2.72c0.2,0,0.48,0.03,0.61,0.1l-0.34,3.13
		c-0.31-0.1-0.68-0.14-1.02-0.14c-1.56,0-2.62,0.58-3.88,1.73v12.51h-2.92V43.6z"/>
</g>
<g>
	<path d="M74.44,73.75h2.41c1.93,0,2.87,0.99,2.87,2.77c0,1.88-0.94,2.88-2.72,2.88h-1.68v3.96h-0.88V73.75z M76.9,78.66
		c1.26,0,1.88-0.6,1.88-2.1c0-1.47-0.57-2.06-1.99-2.06h-1.47v4.16H76.9z"/>
	<path d="M83.67,82.79c0.77,0,1.23-0.27,1.67-0.6l0.46,0.59c-0.57,0.46-1.21,0.73-2.13,0.73c-1.6,0-2.71-0.9-2.71-3.47
		c0-2.55,1.08-3.5,2.56-3.5c1.55,0,2.39,0.98,2.39,3.26v0.35h-4.07C81.86,82.17,82.41,82.79,83.67,82.79z M85.04,79.49
		c0-1.71-0.5-2.27-1.54-2.27c-0.94,0-1.55,0.52-1.65,2.27H85.04z"/>
	<path d="M87.39,80.03c0-2.49,1.09-3.5,2.65-3.5c1.54,0,2.69,0.99,2.69,3.49c0,2.48-1.09,3.49-2.66,3.49
		C88.51,83.5,87.39,82.51,87.39,80.03z M91.84,80.05c0-2.12-0.63-2.84-1.79-2.84s-1.78,0.69-1.78,2.8c0,2.11,0.63,2.83,1.79,2.83
		C91.23,82.83,91.84,82.15,91.84,80.05z"/>
	<path d="M94.66,76.67h0.59l0.2,0.9c0.5-0.56,1.2-1.04,2-1.04c1.33,0,2.27,0.94,2.27,3.49c0,2.41-0.81,3.49-2.32,3.49
		c-0.84,0-1.46-0.43-1.89-0.88v3.6h-0.84V76.67z M98.83,80.09c0-2.24-0.5-2.83-1.51-2.83c-0.77,0-1.33,0.48-1.82,0.92v3.77
		c0.49,0.49,1.06,0.83,1.74,0.83C98.28,82.78,98.83,82.16,98.83,80.09z"/>
	<path d="M101.7,82.16v-8.81h0.84v8.89c0,0.42,0.17,0.54,0.47,0.54c0.18,0,0.29-0.04,0.29-0.04l0.14,0.6
		c-0.18,0.07-0.42,0.13-0.66,0.13C102.13,83.48,101.7,83.14,101.7,82.16z"/>
	<path d="M107.37,82.79c0.77,0,1.23-0.27,1.67-0.6l0.46,0.59c-0.57,0.46-1.2,0.73-2.13,0.73c-1.6,0-2.71-0.9-2.71-3.47
		c0-2.55,1.08-3.5,2.56-3.5c1.55,0,2.39,0.98,2.39,3.26v0.35h-4.07C105.56,82.17,106.11,82.79,107.37,82.79z M108.74,79.49
		c0-1.71-0.5-2.27-1.54-2.27c-0.94,0-1.55,0.52-1.65,2.27H108.74z"/>
	<path d="M113.91,77.36v-0.69h0.8v-1.65c0-1.26,0.71-1.76,1.58-1.76c0.53,0,0.92,0.1,1.32,0.35l-0.32,0.62
		c-0.29-0.15-0.56-0.25-0.91-0.25c-0.53,0-0.83,0.32-0.83,1.06v1.64h1.36v0.69h-1.36v6.01h-0.84v-6.01H113.91z"/>
	<path d="M117.99,80.03c0-2.49,1.09-3.5,2.65-3.5c1.54,0,2.69,0.99,2.69,3.49c0,2.48-1.09,3.49-2.66,3.49
		C119.11,83.5,117.99,82.51,117.99,80.03z M122.44,80.05c0-2.12-0.63-2.84-1.79-2.84c-1.16,0-1.78,0.69-1.78,2.8
		c0,2.11,0.63,2.83,1.79,2.83S122.44,82.15,122.44,80.05z"/>
	<path d="M125.26,76.67h0.59l0.2,1.13c0.56-0.69,1.23-1.23,2.03-1.23c0.07,0,0.2,0.01,0.21,0.03l-0.08,0.9
		c-0.05-0.03-0.17-0.04-0.29-0.04c-0.69,0-1.21,0.35-1.81,0.99v4.91h-0.84V76.67z"/>
	<path d="M133.03,73.75h2.41c1.93,0,2.87,0.99,2.87,2.77c0,1.88-0.94,2.88-2.71,2.88h-1.68v3.96h-0.88V73.75z M135.49,78.66
		c1.26,0,1.88-0.6,1.88-2.1c0-1.47-0.57-2.06-1.99-2.06h-1.47v4.16H135.49z"/>
	<path d="M140.18,76.67h0.59l0.2,1.13c0.56-0.69,1.23-1.23,2.03-1.23c0.07,0,0.2,0.01,0.21,0.03l-0.08,0.9
		c-0.05-0.03-0.17-0.04-0.29-0.04c-0.69,0-1.21,0.35-1.81,0.99v4.91h-0.84V76.67z"/>
	<path d="M144.31,80.03c0-2.49,1.09-3.5,2.64-3.5c1.54,0,2.69,0.99,2.69,3.49c0,2.48-1.09,3.49-2.66,3.49
		C145.43,83.5,144.31,82.51,144.31,80.03z M148.77,80.05c0-2.12-0.63-2.84-1.79-2.84c-1.16,0-1.78,0.69-1.78,2.8
		c0,2.11,0.63,2.83,1.79,2.83C148.15,82.83,148.77,82.15,148.77,80.05z"/>
	<path d="M151.14,80.03c0-2.53,1.09-3.5,2.62-3.5c0.83,0,1.37,0.28,1.88,0.79l-0.5,0.57c-0.39-0.42-0.74-0.64-1.4-0.64
		c-1.11,0-1.71,0.62-1.71,2.76s0.59,2.79,1.78,2.79c0.71,0,1.09-0.34,1.41-0.67l0.55,0.52c-0.45,0.5-1.06,0.87-2,0.87
		C152.22,83.5,151.14,82.54,151.14,80.03z"/>
	<path d="M159.66,82.79c0.77,0,1.23-0.27,1.67-0.6l0.46,0.59c-0.57,0.46-1.2,0.73-2.13,0.73c-1.6,0-2.72-0.9-2.72-3.47
		c0-2.55,1.08-3.5,2.56-3.5c1.55,0,2.39,0.98,2.39,3.26v0.35h-4.07C157.85,82.17,158.4,82.79,159.66,82.79z M161.03,79.49
		c0-1.71-0.5-2.27-1.54-2.27c-0.94,0-1.55,0.52-1.65,2.27H161.03z"/>
	<path d="M163.11,82.78l0.36-0.6c0.52,0.38,1.08,0.63,1.81,0.63c0.99,0,1.4-0.45,1.4-1.18c0-0.81-0.37-1.05-1.51-1.41
		c-0.99-0.31-1.74-0.77-1.74-1.97c0-0.94,0.64-1.71,1.97-1.71c0.81,0,1.36,0.2,1.82,0.46l-0.31,0.66c-0.49-0.27-0.88-0.41-1.5-0.41
		c-0.76,0-1.19,0.31-1.19,0.98c0,0.73,0.34,0.92,1.28,1.23c1.12,0.36,1.99,0.74,1.99,2.13c0,1.3-0.83,1.92-2.23,1.92
		C164.37,83.5,163.6,83.17,163.11,82.78z"/>
	<path d="M168.63,82.78l0.37-0.6c0.52,0.38,1.08,0.63,1.8,0.63c0.99,0,1.4-0.45,1.4-1.18c0-0.81-0.36-1.05-1.51-1.41
		c-0.99-0.31-1.74-0.77-1.74-1.97c0-0.94,0.64-1.71,1.97-1.71c0.81,0,1.36,0.2,1.82,0.46l-0.31,0.66c-0.49-0.27-0.88-0.41-1.5-0.41
		c-0.76,0-1.19,0.31-1.19,0.98c0,0.73,0.34,0.92,1.27,1.23c1.12,0.36,1.99,0.74,1.99,2.13c0,1.3-0.83,1.92-2.23,1.92
		C169.89,83.5,169.12,83.17,168.63,82.78z"/>
	<path d="M178.07,83.36h-0.89l3.01-9.62h0.96l2.94,9.62h-0.95l-0.91-3.09h-3.21L178.07,83.36z M181.19,76.78
		c-0.31-1.05-0.43-1.65-0.52-2.18h-0.03c-0.1,0.55-0.24,1.16-0.54,2.18l-0.84,2.73H182L181.19,76.78z"/>
	<path d="M185.5,81.74v-5.07h0.82v4.84c0,0.91,0.37,1.25,1.04,1.25s1.32-0.39,1.93-0.9v-5.19h0.84v6.69h-0.6l-0.2-0.89
		c-0.63,0.6-1.32,1.04-2.14,1.04C186.23,83.5,185.5,82.93,185.5,81.74z"/>
	<path d="M191.83,77.36v-0.69h0.81v-1.76l0.83-0.2v1.96h1.4v0.69h-1.4v4.84c0,0.41,0.18,0.62,0.56,0.62c0.35,0,0.6-0.11,0.78-0.2
		l0.21,0.62c-0.28,0.14-0.59,0.27-1.04,0.27c-0.76,0-1.34-0.35-1.34-1.26v-4.89H191.83z"/>
	<path d="M196.28,80.03c0-2.49,1.09-3.5,2.65-3.5c1.54,0,2.69,0.99,2.69,3.49c0,2.48-1.09,3.49-2.66,3.49
		C197.4,83.5,196.28,82.51,196.28,80.03z M200.73,80.05c0-2.12-0.63-2.84-1.79-2.84c-1.16,0-1.78,0.69-1.78,2.8
		c0,2.11,0.63,2.83,1.79,2.83S200.73,82.15,200.73,80.05z"/>
	<path d="M203.55,76.67h0.59l0.2,0.92c0.63-0.6,1.26-1.06,2.06-1.06c0.74,0,1.25,0.39,1.48,1.04c0.69-0.62,1.33-1.04,2.09-1.04
		c0.92,0,1.57,0.55,1.57,1.71v5.12h-0.84v-4.9c0-0.88-0.28-1.19-0.91-1.19c-0.63,0-1.23,0.37-1.82,0.88v5.21h-0.84v-4.9
		c0-0.88-0.28-1.19-0.91-1.19c-0.64,0-1.22,0.41-1.82,0.92v5.17h-0.84V76.67z"/>
	<path d="M217.17,78.58c0-0.84-0.21-1.32-1.11-1.32c-0.74,0-1.39,0.28-2,0.67l-0.34-0.62c0.66-0.43,1.37-0.79,2.41-0.79
		c1.23,0,1.88,0.6,1.88,1.93v4.9h-0.59l-0.21-0.81c-0.37,0.43-0.99,0.95-1.86,0.95c-1.23,0-1.96-0.71-1.96-2.02
		c0-1.46,0.87-2.16,2.93-2.16h0.85V78.58z M217.17,79.98h-0.77c-1.68,0-2.13,0.45-2.13,1.53c0,0.92,0.38,1.3,1.18,1.3
		c0.8,0,1.37-0.49,1.72-0.92V79.98z"/>
	<path d="M219.65,77.36v-0.69h0.81v-1.76l0.83-0.2v1.96h1.4v0.69h-1.4v4.84c0,0.41,0.18,0.62,0.56,0.62c0.35,0,0.6-0.11,0.79-0.2
		l0.21,0.62c-0.28,0.14-0.59,0.27-1.04,0.27c-0.76,0-1.34-0.35-1.34-1.26v-4.89H219.65z"/>
	<path d="M224.94,77.33l-0.95-0.13v-0.53h1.79v6.69h-0.84V77.33z M224.64,74.49c0-0.38,0.27-0.66,0.63-0.66
		c0.38,0,0.64,0.28,0.64,0.66c0,0.36-0.27,0.64-0.64,0.64C224.91,75.13,224.64,74.85,224.64,74.49z"/>
	<path d="M227.75,80.03c0-2.49,1.09-3.5,2.65-3.5c1.54,0,2.69,0.99,2.69,3.49c0,2.48-1.09,3.49-2.66,3.49
		C228.87,83.5,227.75,82.51,227.75,80.03z M232.21,80.05c0-2.12-0.63-2.84-1.79-2.84s-1.78,0.69-1.78,2.8
		c0,2.11,0.63,2.83,1.79,2.83C231.59,82.83,232.21,82.15,232.21,80.05z"/>
	<path d="M235.02,76.67h0.59l0.2,0.97c0.66-0.64,1.36-1.11,2.18-1.11c0.95,0,1.65,0.56,1.65,1.72v5.11h-0.84v-4.88
		c0-0.9-0.32-1.21-1.01-1.21c-0.67,0-1.33,0.44-1.93,0.97v5.12h-0.84V76.67z"/>
</g>
<g>
	<path class="st1" d="M311.69,27.46c-0.34-0.09-0.68-0.13-1.03-0.13h-47.93c-1.8,0-3.38,1.21-3.85,2.95l-6.79,25.34
		c-0.57,2.12,0.69,4.31,2.81,4.87c0.34,0.09,0.68,0.14,1.03,0.14h47.93c1.8,0,3.38-1.21,3.84-2.95l6.79-25.34
		C315.08,30.21,313.82,28.03,311.69,27.46z"/>
	<path class="st2" d="M282.11,57.44h-19.37c-0.44,0-0.8-0.36-0.8-0.8V31.3c0-0.44,0.36-0.8,0.8-0.8h19.37l-1.96,7.3h-9.59v2.52h6.58
		l-1.96,7.3h-4.62v2.52h11.54V57.44z"/>
	<path class="st2" d="M304.67,56.65c0,0.44-0.36,0.8-0.8,0.8h-7.83v-9.82h-2.65v9.82h-8.62v-9.82h-7.24l1.96-7.3h5.29v-9.82h8.62
		v9.82h2.65v-9.82h7.83c0.44,0,0.8,0.36,0.8,0.8V56.65z"/>
</g>
</svg>
